<svg width="52" height="40" viewBox="0 0 52 40" fill="none" xmlns="http://www.w3.org/2000/svg">
<path d="M24.0042 29.4057C22.9744 25.9941 23.6776 23.2239 23.6776 23.2239L14.2961 10.6642C7.80231 9.18817 8.28955 16.5503 8.28955 16.5503L24.0934 37.6265C24.0934 37.6265 26.1682 40.1527 29.0702 38.9128C29.9081 38.5565 30.4329 38.0773 30.7559 37.5767C26.6751 34.6514 24.5896 31.3414 24.0042 29.4031" fill="#D7D7D7" fill-opacity="0.7"/>
<path d="M14.344 10.7285L7.5218 1.62763C7.5218 1.62763 5.81291 -0.62421 2.98944 0.169457C1.17258 0.680753 0 2.2476 0 4.14848V35.3402C0 37.7907 1.71514 39.5027 4.17095 39.5027C6.62675 39.5027 8.341 37.7907 8.341 35.3402V16.6565C8.341 12.347 10.596 9.85023 14.344 10.7312" fill="#F3F3F3"/>
<path d="M41.6652 6.3057C40.4239 4.06722 39.5217 0.116697 33.1751 0.116697L27.1168 0.112244C23.0164 0.112244 22.9727 3.80177 22.9727 4.22934C22.9727 4.23557 22.9727 4.24181 22.9727 4.24893C22.9727 4.25606 24.6682 10.4566 31.2619 10.4451C31.1664 9.34319 31.6929 8.45154 32.8762 8.38651H45.1909C45.1106 8.38651 42.8868 8.19945 41.6696 6.3057" fill="#D7D7D7" fill-opacity="0.7"/>
<path d="M43.2266 19.9414C41.6534 19.0943 39.5929 18.6418 37.7555 18.6418C38.5969 18.7408 39.4193 18.9626 40.1961 19.3001C42.3128 20.2193 43.6764 22.513 43.6764 24.9519C43.6747 26.5947 43.0202 28.1698 41.8565 29.3314C40.6927 30.4931 39.1148 31.1464 37.4691 31.1481C33.9888 31.1481 31.2617 28.5043 31.2617 25.0303C31.2617 25.5318 31.226 26.0146 31.2564 26.4885C31.5392 35.4549 37.4316 39.3965 37.4673 39.4214C40.3826 39.4181 43.2293 38.5388 45.637 36.898C48.0446 35.2571 49.9016 32.9307 50.9662 30.2217C50.9662 30.2217 49.3733 23.0573 43.2266 19.9414Z" fill="#D7D7D7" fill-opacity="0.7"/>
<path d="M31.2619 25.0286C31.2619 23.4065 29.8885 21.0878 27.1177 21.0878C24.6771 21.0878 22.9727 22.5923 22.9727 25.0286C22.9727 33.008 29.4763 39.4214 37.4692 39.4214C37.4692 39.4214 31.2619 35.12 31.2619 25.0286Z" fill="#F3F3F3"/>
<path d="M45.1878 0.112244H32.873C32.9757 0.112244 33.0738 0.112244 33.1738 0.116697C38.4388 0.212009 39.763 2.80234 40.9258 5.05952C41.1498 5.4951 41.372 5.91643 41.6076 6.30659C42.276 7.39331 43.2139 8.38651 45.1842 8.38651C47.9283 8.38651 49.3284 5.91465 49.3284 4.25071C49.3284 1.83675 47.3018 0.114025 45.1842 0.114025" fill="#F3F3F3"/>
<path d="M37.4692 10.3631H31.2619C24.8672 10.3631 22.9727 4.16693 22.9727 4.16693V13.6776C22.9727 16.9663 26.3342 18.6382 31.2039 18.6382H37.4692C47.9252 18.6382 50.9673 30.2181 50.9673 30.2181C55.1489 18.7834 45.8254 10.3631 37.4692 10.3631Z" fill="#F3F3F3"/>
</svg>
